{"asset":{"version":"2.0","generator":"Blockbench 5.0.3 glTF exporter"},"scenes":[{"nodes":[0,1,2,3,4,5,6,7],"name":"blockbench_export"}],"scene":0,"nodes":[{"name":"bigfloor","mesh":0},{"name":"start","mesh":1},{"name":"prop","mesh":2},{"name":"bigramp","mesh":3},{"name":"floor","mesh":4},{"name":"wall","mesh":5},{"name":"wall2","mesh":6},{"name":"ramp","mesh":7}],"bufferViews":[{"buffer":0,"byteOffset":0,"byteLength":432,"target":34962,"byteStride":12},{"buffer":0,"byteOffset":432,"byteLength":432,"target":34962,"byteStride":12},{"buffer":0,"byteOffset":864,"byteLength":288,"target":34962,"byteStride":8},{"buffer":0,"byteOffset":1152,"byteLength":72,"target":34963},{"buffer":0,"byteOffset":1224,"byteLength":432,"target":34962,"byteStride":12},{"buffer":0,"byteOffset":1656,"byteLength":432,"target":34962,"byteStride":12},{"buffer":0,"byteOffset":2088,"byteLength":288,"target":34962,"byteStride":8},{"buffer":0,"byteOffset":2376,"byteLength":72,"target":34963},{"buffer":0,"byteOffset":2448,"byteLength":432,"target":34962,"byteStride":12},{"buffer":0,"byteOffset":2880,"byteLength":432,"target":34962,"byteStride":12},{"buffer":0,"byteOffset":3312,"byteLength":288,"target":34962,"byteStride":8},{"buffer":0,"byteOffset":3600,"byteLength":72,"target":34963},{"buffer":0,"byteOffset":3672,"byteLength":432,"target":34962,"byteStride":12},{"buffer":0,"byteOffset":4104,"byteLength":432,"target":34962,"byteStride":12},{"buffer":0,"byteOffset":4536,"byteLength":288,"target":34962,"byteStride":8},{"buffer":0,"byteOffset":4824,"byteLength":72,"target":34963},{"buffer":0,"byteOffset":4896,"byteLength":432,"target":34962,"byteStride":12},{"buffer":0,"byteOffset":5328,"byteLength":432,"target":34962,"byteStride":12},{"buffer":0,"byteOffset":5760,"byteLength":288,"target":34962,"byteStride":8},{"buffer":0,"byteOffset":6048,"byteLength":72,"target":34963},{"buffer":0,"byteOffset":6120,"byteLength":432,"target":34962,"byteStride":12},{"buffer":0,"byteOffset":6552,"byteLength":432,"target":34962,"byteStride":12},{"buffer":0,"byteOffset":6984,"byteLength":288,"target":34962,"byteStride":8},{"buffer":0,"byteOffset":7272,"byteLength":72,"target":34963},{"buffer":0,"byteOffset":7344,"byteLength":432,"target":34962,"byteStride":12},{"buffer":0,"byteOffset":7776,"byteLength":432,"target":34962,"byteStride":12},{"buffer":0,"byteOffset":8208,"byteLength":288,"target":34962,"byteStride":8},{"buffer":0,"byteOffset":8496,"byteLength":72,"target":34963},{"buffer":0,"byteOffset":8568,"byteLength":432,"target":34962,"byteStride":12},{"buffer":0,"byteOffset":9000,"byteLength":432,"target":34962,"byteStride":12},{"buffer":0,"byteOffset":9432,"byteLength":288,"target":34962,"byteStride":8},{"buffer":0,"byteOffset":9720,"byteLength":72,"target":34963}],"buffers":[{"byteLength":9792,"uri":"data:application/octet-stream;base64,"}],"accessors":[{"bufferView":0,"componentType":5126,"count":36,"max":[1.875,0.9375,-2.625],"min":[-1.875,0.8125,-5],"type":"VEC3"},{"bufferView":1,"componentType":5126,"count":36,"max":[1,1,1],"min":[-1,-1,-1],"type":"VEC3"},{"bufferView":2,"componentType":5126,"count":36,"max":[0.53125,0.296875],"min":[0,0],"type":"VEC2"},{"bufferView":3,"componentType":5123,"count":36,"max":[35],"min":[0],"type":"SCALAR"},{"bufferView":4,"componentType":5126,"count":36,"max":[0.25,0.3125,0.25],"min":[-0.25,-0.1875,-0.25],"type":"VEC3"},{"bufferView":5,"componentType":5126,"count":36,"max":[1,1,1],"min":[-1,-1,-1],"type":"VEC3"},{"bufferView":6,"componentType":5126,"count":36,"max":[0.35546875,0.359375],"min":[0.06640625,0.1171875],"type":"VEC2"},{"bufferView":7,"componentType":5123,"count":36,"max":[35],"min":[0],"type":"SCALAR"},{"bufferView":8,"componentType":5126,"count":36,"max":[0.25,0.4375,0.25],"min":[0.125,0.3125,0.125],"type":"VEC3"},{"bufferView":9,"componentType":5126,"count":36,"max":[1,1,1],"min":[-1,-1,-1],"type":"VEC3"},{"bufferView":10,"componentType":5126,"count":36,"max":[0.23046875,0.3046875],"min":[0.22265625,0.296875],"type":"VEC2"},{"bufferView":11,"componentType":5123,"count":36,"max":[35],"min":[0],"type":"SCALAR"},{"bufferView":12,"componentType":5126,"count":36,"max":[0.5,0.47661691904067993,-0.3136936128139496],"min":[-0.5,-0.20479467511177063,-1.3443242311477661],"type":"VEC3"},{"bufferView":13,"componentType":5126,"count":36,"max":[1,0.9801894426345825,0.9659258127212524],"min":[-1,-0.8743128776550293,-0.9659258127212524],"type":"VEC3"},{"bufferView":14,"componentType":5126,"count":36,"max":[0.36328125,0.328125],"min":[0.0458984375,0.1171875],"type":"VEC2"},{"bufferView":15,"componentType":5123,"count":36,"max":[35],"min":[0],"type":"SCALAR"},{"bufferView":16,"componentType":5126,"count":36,"max":[0.5,0.5,-1.5],"min":[-0.5,0.375,-2.5],"type":"VEC3"},{"bufferView":17,"componentType":5126,"count":36,"max":[1,1,1],"min":[-1,-1,-1],"type":"VEC3"},{"bufferView":18,"componentType":5126,"count":36,"max":[0.38671875,0.2578125],"min":[0.234375,0.125],"type":"VEC2"},{"bufferView":19,"componentType":5123,"count":36,"max":[35],"min":[0],"type":"SCALAR"},{"bufferView":20,"componentType":5126,"count":36,"max":[0.5,0.9375,-2.5],"min":[-0.5,0,-2.625],"type":"VEC3"},{"bufferView":21,"componentType":5126,"count":36,"max":[1,1,1],"min":[-1,-1,-1],"type":"VEC3"},{"bufferView":22,"componentType":5126,"count":36,"max":[0.359375,0.38671875],"min":[0.1083984375,0],"type":"VEC2"},{"bufferView":23,"componentType":5123,"count":36,"max":[35],"min":[0],"type":"SCALAR"},{"bufferView":24,"componentType":5126,"count":36,"max":[-0.5,0.9375,-1.5],"min":[-0.6875,0,-2.5625],"type":"VEC3"},{"bufferView":25,"componentType":5126,"count":36,"max":[1,1,1],"min":[-1,-1,-1],"type":"VEC3"},{"bufferView":26,"componentType":5126,"count":36,"max":[0.30078125,0.3857421875],"min":[0,0.25],"type":"VEC2"},{"bufferView":27,"componentType":5123,"count":36,"max":[35],"min":[0],"type":"SCALAR"},{"bufferView":28,"componentType":5126,"count":36,"max":[-0.125,0.9375,-1.75],"min":[-0.5,0.4375,-2.5],"type":"VEC3"},{"bufferView":29,"componentType":5126,"count":36,"max":[1,0.8637788891792297,1],"min":[-1,-1,-1],"type":"VEC3"},{"bufferView":30,"componentType":5126,"count":36,"max":[0.3515625,0.35546875],"min":[0.08984375,0.1484375],"type":"VEC2"},{"bufferView":31,"componentType":5123,"count":36,"max":[35],"min":[0],"type":"SCALAR"}],"materials":[{"pbrMetallicRoughness":{"metallicFactor":0,"roughnessFactor":1,"baseColorTexture":{"index":0}},"alphaMode":"MASK","alphaCutoff":0.05,"doubleSided":true}],"textures":[{"sampler":0,"source":0}],"samplers":[{"magFilter":9728,"minFilter":9728,"wrapS":33071,"wrapT":33071}],"images":[{"mimeType":"image/png","uri":"data:image/png;base64,"}],"meshes":[{"primitives":[{"mode":4,"attributes":{"POSITION":0,"NORMAL":1,"TEXCOORD_0":2},"indices":3,"material":0}]},{"primitives":[{"mode":4,"attributes":{"POSITION":4,"NORMAL":5,"TEXCOORD_0":6},"indices":7,"material":0}]},{"primitives":[{"mode":4,"attributes":{"POSITION":8,"NORMAL":9,"TEXCOORD_0":10},"indices":11,"material":0}]},{"primitives":[{"mode":4,"attributes":{"POSITION":12,"NORMAL":13,"TEXCOORD_0":14},"indices":15,"material":0}]},{"primitives":[{"mode":4,"attributes":{"POSITION":16,"NORMAL":17,"TEXCOORD_0":18},"indices":19,"material":0}]},{"primitives":[{"mode":4,"attributes":{"POSITION":20,"NORMAL":21,"TEXCOORD_0":22},"indices":23,"material":0}]},{"primitives":[{"mode":4,"attributes":{"POSITION":24,"NORMAL":25,"TEXCOORD_0":26},"indices":27,"material":0}]},{"primitives":[{"mode":4,"attributes":{"POSITION":28,"NORMAL":29,"TEXCOORD_0":30},"indices":31,"material":0}]}]}